HIERARCHY
ROOT Hips
{
	OFFSET 0.00 0.00 0.00
	CHANNELS 6 Xposition Yposition Zposition Xrotation Yrotation Zrotation
	JOINT RightUpLeg
	{
		OFFSET -3.76699 0.00000 0.00000
		CHANNELS 3 Xrotation Yrotation Zrotation
		JOINT RightLeg
		{
			OFFSET 0.00000 -18.01768 0.00000
			CHANNELS 3 Xrotation Yrotation Zrotation
			JOINT RightFoot
			{
				OFFSET 0.00000 -16.88108 0.00000
				CHANNELS 3 Xrotation Yrotation Zrotation
				JOINT RightToeBase
				{
					OFFSET 0.00000 -1.49359 5.57418
					CHANNELS 3 Xrotation Yrotation Zrotation
					End Site
					{
						OFFSET 0.00000 0.00000 2.95275
					}
				}
			}
		}
	}
	JOINT LeftUpLeg
	{
		OFFSET 3.76699 0.00000 0.00000
		CHANNELS 3 Xrotation Yrotation Zrotation
		JOINT LeftLeg
		{
			OFFSET 0.00000 -18.01768 0.00000
			CHANNELS 3 Xrotation Yrotation Zrotation
			JOINT LeftFoot
			{
				OFFSET 0.00000 -16.88108 0.00000
				CHANNELS 3 Xrotation Yrotation Zrotation
				JOINT LeftToeBase
				{
					OFFSET 0.00000 -1.49359 5.57418
					CHANNELS 3 Xrotation Yrotation Zrotation
					End Site
					{
						OFFSET 0.00000 0.00000 2.95275
					}
				}
			}
		}
	}
	JOINT Spine
	{
		OFFSET 0.00000 7.77970 0.00000
		CHANNELS 3 Xrotation Yrotation Zrotation
		JOINT RightShoulder
		{
			OFFSET 0.00000 10.94176 0.00000
			CHANNELS 3 Xrotation Yrotation Zrotation
			JOINT RightArm
			{
				OFFSET -7.70894 0.00000 0.00000
				CHANNELS 3 Xrotation Yrotation Zrotation
				JOINT RightForeArm
				{
					OFFSET -11.52135 0.00000 0.00000
					CHANNELS 3 Yrotation Zrotation Xrotation
					JOINT RightHand
					{
						OFFSET -10.17590 0.00000 0.00000
						CHANNELS 3 Xrotation Yrotation Zrotation
						End Site
						{
							OFFSET -3.93700 0.00000 0.00000
						}
						JOINT RightHandThumb1
						{
							OFFSET 0.00000 0.00000 0.00000
							CHANNELS 3 Xrotation Zrotation Yrotation
							End Site
							{
								OFFSET 0.00000 0.00000 3.93700
							}
						}
					}
				}
			}
		}
		JOINT LeftShoulder
		{
			OFFSET 0.00000 10.94176 0.00000
			CHANNELS 3 Xrotation Yrotation Zrotation
			JOINT LeftArm
			{
				OFFSET 7.70894 0.00000 0.00000
				CHANNELS 3 Xrotation Yrotation Zrotation
				JOINT LeftForeArm
				{
					OFFSET 11.52135 0.00000 0.00000
					CHANNELS 3 Yrotation Zrotation Xrotation
					JOINT LeftHand
					{
						OFFSET 10.17590 0.00000 0.00000
						CHANNELS 3 Xrotation Yrotation Zrotation
						End Site
						{
							OFFSET 3.93700 0.00000 0.00000
						}
						JOINT LeftHandThumb1
						{
							OFFSET 0.00000 0.00000 0.00000
							CHANNELS 3 Xrotation Zrotation Yrotation
							End Site
							{
								OFFSET 0.00000 0.00000 3.93700
							}
						}
					}
				}
			}
		}
		JOINT Head
		{
			OFFSET 0.00000 16.64604 0.00000
			CHANNELS 3 Xrotation Yrotation Zrotation
			End Site
			{
				OFFSET 0.00000 4.52755 0.00000
			}
		}
	}
}
MOTION
Frames: 11
Frame Time: 0.008333
 2.5392 37.1006 1.8186 -3.3035 -4.6338 1.6147 9.5977 -5.1452 -3.5343 -4.7480 0.0000 -0.0000 -8.1433 -20.0335 8.5828 15.8933 0.0000 0.0000 8.8093 2.7664 0.5958 -1.9783 -0.0000 -0.0000 -5.7550 19.8644 -10.3949 9.9250 0.0000 0.0000 6.1862 -2.0495 -1.0004 9.9223 -7.1406 -26.7141 -31.0119 -2.9728 24.5550 17.4184 0.0000 -9.8984 -0.0110 -0.2430 -2.5871 32.8623 0.0000 -24.3270 26.9467 28.1646 15.4851 -60.7293 -1.3208 -31.5112 -6.9149 0.0000 40.3834 2.5498 18.8216 -7.8590 33.1476 -0.0000 26.2537 1.6690 11.5763 1.7822
 2.5357 37.1004 1.8194 -3.3082 -4.6428 1.6146 9.6064 -5.1578 -3.5301 -4.7570 -0.0000 -0.0000 -8.1298 -20.0139 8.6038 15.8609 -0.0000 0.0000 8.8133 2.7729 0.5996 -1.9716 0.0000 -0.0000 -5.7565 19.8603 -10.3902 9.9185 0.0000 0.0000 6.1724 -2.0197 -1.0025 9.9296 -7.1213 -26.7036 -31.0836 -2.9985 24.5893 17.5142 0.0000 -9.9445 -0.0166 -0.3661 -2.6029 32.8623 0.0000 -24.3270 26.9472 28.1579 15.4615 -60.6529 -1.3929 -31.4850 -6.9188 0.0000 40.3119 2.5599 18.8738 -7.8690 33.1476 -0.0000 26.2537 1.6595 11.6064 1.7485
 2.5317 37.1002 1.8202 -3.3095 -4.6495 1.6114 9.6123 -5.1595 -3.5211 -4.7614 0.0000 0.0000 -8.1347 -20.0174 8.6209 15.8878 0.0000 0.0000 8.8168 2.7675 0.6105 -1.9717 -0.0000 0.0000 -5.7513 19.8705 -10.4190 9.9381 -0.0000 0.0000 6.1502 -1.9871 -1.0062 9.9454 -7.1015 -26.6677 -31.0669 -2.9256 24.5998 17.5196 0.0000 -10.0280 -0.0123 -0.2660 -2.6465 32.8623 0.0000 -24.3270 26.9674 28.1524 15.4473 -60.6232 -1.4199 -31.4725 -6.9483 0.0000 40.3047 2.5616 18.8990 -7.8642 33.1476 -0.0000 26.2537 1.6693 11.6270 1.7507
 2.5290 37.1006 1.8196 -3.2996 -4.6574 1.6144 9.5957 -5.1975 -3.5194 -4.7574 -0.0000 -0.0000 -8.1428 -19.9781 8.6216 15.8862 -0.0000 -0.0000 8.8009 2.7768 0.6119 -1.9575 0.0000 0.0000 -5.7521 19.8645 -10.4349 9.9120 0.0000 -0.0000 6.1163 -1.9510 -1.0094 9.9521 -7.0744 -26.6274 -31.1076 -2.8995 24.6002 17.5653 0.0000 -10.0954 -0.0137 -0.2938 -2.6683 32.8623 0.0000 -24.3270 26.9722 28.1362 15.4239 -60.5650 -1.4669 -31.4528 -6.9742 0.0000 40.2737 2.5339 18.9240 -7.7703 33.1476 -0.0000 26.2537 1.6618 11.6402 1.7084
 2.5258 37.1005 1.8198 -3.2928 -4.6704 1.6176 9.5888 -5.2233 -3.5184 -4.7645 -0.0000 0.0000 -8.1329 -19.9486 8.6394 15.8401 0.0000 -0.0000 8.7933 2.7807 0.6126 -1.9522 -0.0000 0.0000 -5.7451 19.8721 -10.4304 9.8952 -0.0000 0.0000 6.0842 -1.9149 -1.0163 9.9483 -7.0339 -26.6048 -31.2633 -2.9870 24.6450 17.7056 0.0000 -10.0083 -0.0152 -0.3221 -2.7085 32.8623 0.0000 -24.3270 26.9748 28.1278 15.4021 -60.5280 -1.4995 -31.4401 -6.9978 0.0000 40.2806 2.5134 18.8024 -7.7554 33.1476 -0.0000 26.2537 1.6676 11.6655 1.6826
 2.5226 37.1005 1.8204 -3.2868 -4.6850 1.6187 9.5798 -5.2606 -3.5140 -4.7626 0.0000 0.0000 -8.1417 -19.9072 8.6313 15.8685 -0.0000 -0.0000 8.7899 2.7850 0.6157 -1.9503 -0.0000 -0.0000 -5.7569 19.8786 -10.4361 9.9673 -0.0000 0.0000 6.0541 -1.8714 -1.0248 9.9362 -6.9971 -26.5744 -31.3798 -3.0450 24.6800 17.8175 0.0000 -9.9596 -0.0095 -0.2118 -2.5778 32.8623 0.0000 -24.3270 26.9817 28.1226 15.3891 -60.5037 -1.5059 -31.4478 -7.0510 0.0000 40.2854 2.4974 18.7812 -7.7149 33.1476 -0.0000 26.2537 1.6634 11.6789 1.6655
 2.5182 37.1003 1.8215 -3.2828 -4.6966 1.6113 9.5769 -5.2958 -3.4987 -4.7663 0.0000 -0.0000 -8.1289 -19.8763 8.6745 15.8499 -0.0000 0.0000 8.7876 2.8021 0.6343 -1.9488 0.0000 -0.0000 -5.7591 19.8283 -10.4042 9.9065 -0.0000 0.0000 6.0214 -1.8305 -1.0223 9.9266 -6.9569 -26.5438 -31.4864 -3.0861 24.7326 17.9635 0.0000 -9.9612 -0.0196 -0.4126 -2.7224 32.8623 0.0000 -24.3270 27.0397 28.1456 15.3506 -60.5401 -1.5123 -31.4788 -7.1307 0.0000 40.3033 2.5200 18.9052 -7.7354 33.1476 -0.0000 26.2537 1.6827 11.6782 1.6309
 2.5147 37.1003 1.8211 -3.2714 -4.7137 1.6134 9.5549 -5.3497 -3.4931 -4.7573 -0.0000 -0.0000 -8.1446 -19.8169 8.6390 15.8765 0.0000 0.0000 8.7714 2.8036 0.6363 -1.9357 -0.0000 -0.0000 -5.7610 19.8491 -10.4169 9.9282 0.0000 -0.0000 5.9837 -1.7823 -1.0284 9.9324 -6.9286 -26.5082 -31.5800 -3.1028 24.7774 18.0615 0.0000 -10.0061 -0.0120 -0.2515 -2.7418 32.8623 0.0000 -24.3270 27.0886 28.1672 15.2874 -60.5133 -1.6198 -31.4954 -7.1218 0.0000 40.2652 2.4949 18.8161 -7.6937 33.1476 -0.0000 26.2537 1.6899 11.6700 1.5910
 2.5114 37.1003 1.8225 -3.2703 -4.7313 1.6154 9.5504 -5.3972 -3.4908 -4.7564 0.0000 -0.0000 -8.1425 -19.7618 8.6579 15.8292 0.0000 0.0000 8.7723 2.8182 0.6369 -1.9293 0.0000 -0.0000 -5.7592 19.8547 -10.4361 9.9358 0.0000 0.0000 5.9544 -1.7313 -1.0360 9.9111 -6.8873 -26.4703 -31.6289 -3.1004 24.8380 18.1823 0.0000 -10.0256 -0.0120 -0.2327 -2.9484 32.8623 0.0000 -24.3270 27.0844 28.1497 15.2963 -60.4127 -1.6288 -31.5308 -7.1761 0.0000 40.2706 2.4720 18.8158 -7.6240 33.1476 -0.0000 26.2537 1.7027 11.6587 1.5521
 2.5083 37.1000 1.8238 -3.2697 -4.7522 1.6146 9.5470 -5.4368 -3.4848 -4.7591 0.0000 -0.0000 -8.1483 -19.7215 8.6687 15.8414 0.0000 0.0000 8.7765 2.8280 0.6334 -1.9282 -0.0000 0.0000 -5.7716 19.9054 -10.4399 9.9585 -0.0000 0.0000 5.9209 -1.6881 -1.0438 9.9274 -6.8314 -26.4290 -31.7252 -3.1294 24.8860 18.3079 0.0000 -10.0831 -0.0079 -0.1520 -2.9857 32.8623 0.0000 -24.3270 27.1176 28.1647 15.2764 -60.3169 -1.6861 -31.5848 -7.2063 0.0000 40.2385 2.4189 18.7905 -7.4715 33.1476 -0.0000 26.2537 1.7399 11.6819 1.5476
 2.5065 37.0999 1.8230 -3.2571 -4.7810 1.6224 9.5209 -5.4558 -3.4910 -4.7467 0.0000 0.0000 -8.1565 -19.6891 8.6695 15.8312 0.0000 -0.0000 8.7600 2.8423 0.6256 -1.9141 -0.0000 0.0000 -5.7710 19.9243 -10.4554 9.9361 -0.0000 -0.0000 5.8778 -1.6215 -1.0606 9.9173 -6.7648 -26.3656 -31.7911 -3.1454 24.9134 18.4396 0.0000 -10.2110 -0.0069 -0.1276 -3.1112 32.8623 0.0000 -24.3270 27.1434 28.1613 15.2521 -60.2409 -1.7251 -31.6367 -7.2900 0.0000 40.2399 2.4290 18.7724 -7.5092 33.1476 -0.0000 26.2537 1.7625 11.6709 1.5208
